<?xml version="1.0" standalone="no"?>
<!DOCTYPE svg PUBLIC "-//W3C//DTD SVG 20010904//EN"
 "http://www.w3.org/TR/2001/REC-SVG-20010904/DTD/svg10.dtd">
<svg version="1.0" xmlns="http://www.w3.org/2000/svg"
 width="512.000000pt" height="512.000000pt" viewBox="0 0 512.000000 512.000000"
 preserveAspectRatio="xMidYMid meet">

<g transform="translate(0.000000,512.000000) scale(0.100000,-0.100000)"
fill="#000000" stroke="none">
<path d="M1241 4904 c-161 -27 -342 -100 -491 -199 -96 -64 -271 -239 -335
-335 -105 -158 -171 -325 -200 -502 -22 -138 -22 -2477 0 -2615 43 -263 159
-488 355 -683 150 -150 300 -243 496 -309 184 -62 159 -61 1494 -61 1331 0
1303 -1 1493 60 190 61 347 159 497 309 151 152 243 300 309 496 62 185 61
160 61 1495 0 1335 1 1310 -61 1495 -150 448 -532 775 -992 850 -132 21 -2497
20 -2626 -1z m1637 -940 c78 -32 131 -111 132 -194 0 -25 -106 -594 -235
-1264 -257 -1334 -243 -1278 -326 -1333 -48 -32 -136 -42 -194 -23 -84 28
-145 113 -145 202 0 83 466 2485 490 2522 43 71 104 105 188 106 29 0 69 -7
90 -16z m-1190 -626 c104 -49 149 -186 96 -292 -9 -17 -105 -121 -214 -231
-202 -203 -219 -227 -205 -282 4 -17 85 -107 214 -238 196 -198 209 -213 220
-262 17 -68 7 -122 -32 -180 -43 -62 -101 -93 -179 -93 -32 0 -75 7 -96 15
-46 20 -642 610 -680 675 -38 64 -38 156 0 220 14 25 167 185 340 356 310 308
323 319 403 337 32 7 86 -3 133 -25z m1942 4 c21 -9 165 -145 356 -336 308
-307 323 -324 340 -378 15 -50 16 -64 5 -115 l-13 -58 -326 -328 c-182 -183
-344 -337 -366 -348 -43 -23 -124 -27 -171 -9 -78 30 -145 121 -145 200 0 88
12 104 225 320 112 113 209 218 215 234 22 60 8 80 -210 301 -219 221 -230
237 -230 325 0 79 70 176 142 198 74 24 115 22 178 -6z"/>
</g>
</svg>
